<svg id="Layer_1" data-name="Layer 1" xmlns="http://www.w3.org/2000/svg" viewBox="0 0 617.25 846.57"><defs><style>.cls-1{fill:#fff;fill-rule:evenodd;}</style></defs><path class="cls-1" d="M428.31,431.68c38.71-16.86,135.78-13.58,162.93-10.8V226.14C591.24,120.05,464,26,308.59,26S26,120.05,26,226.14V421.29c21.31-2.87,125.64-7.17,166.12,10.39,77.11,33.35,104.8,110,101.61,132.72-.72,5.05-1.86,10.07-3.6,2.81-5-20.52-47.58-65.21-99.46-74.49-18.51-3.35-69.85-1.42-72.54-41.33C72.08,458.17,39,441.5,26,429v79.65c21.31-2.88,125.64-7.27,166.12,10.38,77.11,33.44,104.8,110.08,101.61,132.82-.72,5-1.86,10-3.6,2.8-5-20.59-47.58-65.3-99.46-74.55-18.51-3.28-69.85-1.36-72.54-41.36C72.08,545.58,39,528.88,26,516.37v80.21c21.31-2.94,125.64-7.27,166.12,10.29,77.11,33.38,104.8,110,101.61,132.75-.72,5-1.86,10-3.6,2.87-5-20.59-47.58-65.3-99.46-74.55-18.51-3.35-69.85-1.52-72.54-41.43C72.08,633.37,39,616.69,26,604.16v150a66.54,66.54,0,0,0,66.33,66.41H524.83a66.61,66.61,0,0,0,66.41-66.41V607c-14.78,12.13-46.39,25.86-88.85,19.48-2.72,39.91-54.13,38.08-72.57,41.43-51.95,9.25-94.48,54-99.44,74.55-1.76,7.17-3,2.08-3.5-2.87-3.29-22.76,24.41-99.37,101.43-132.75C467,590,564.09,593.29,591.24,596.17V519.24c-14.78,12-46.39,25.77-88.85,19.46-2.72,40-54.13,38.08-72.57,41.36-51.95,9.25-94.48,54-99.44,74.55-1.76,7.17-3,2.15-3.5-2.8-3.29-22.74,24.41-99.38,101.43-132.82,38.71-16.83,135.78-13.57,162.93-10.7V431.84c-14.78,12-46.39,25.86-88.85,19.55-2.72,39.91-54.13,38-72.57,41.33-51.95,9.28-94.48,54-99.44,74.49-1.76,7.26-3,2.24-3.5-2.81-3.29-22.74,24.41-99.37,101.43-132.72Zm-159.95,8-10.77-8.53c-6.88-44.14-70.73-78.31-130.34-82.06-9.76-7.74-16-23.85-13.51-39.73,34.73,2.46,55.57,13.71,66.18,20.58-3.19-10.13-43.67-31.44-58.58-36.72,3.1-11.74,14.12-17.87,30.32-22.92C230.53,316.65,270,401.81,268.36,439.64ZM288.55,478l-6.95-6.38c6.95-57.56-14.91-106-45.16-147-20.52-27.6-67.38-74.78-75.19-82.6V242c-1.54-1.52-1.35-1.45,0-.09-3.69-21.7.32-37.05,4.87-47.25,14.37-.09,60.09,47.88,68.08,61.21.56-11.73-43.83-73.9-52.2-77.81,11.65-5.19,29-6.7,48.53-3.76,43.17,81.57,70.23,176.89,58,303.64Zm30.56,26.65c.57,5.28-7.26,20.21-10.83,20.21s-11.34-14.93-10.86-20.21S301,463.13,301,447.08s-3-87.9-5.11-109.75c-5.11-52.7-35.12-155.11-50.68-176.49,1.74-20.83,18.12-39.75,21.22-42.38,12.94-11.17,28.33-26.42,32,4.24,2,17.62,3.59,35.18,3.59,35.18V193c0,4.77,4.71,10.13,6.23,11.15,1.51-1,6.13-6.38,6.13-11.15V157.88s1.6-17.56,3.6-35.18c3.66-30.66,19.16-15.41,32.08-4.24,3.12,2.63,19.48,21.55,21.16,42.38-15.41,21.38-45.42,123.79-50.53,176.49-2.15,21.85-5.27,93.78-5.27,109.75s3.12,52.21,3.66,57.54ZM328.93,478C316.65,351.22,343.8,255.9,387,174.33c19.55-2.94,36.79-1.43,48.44,3.76-8.37,3.91-52.74,66.08-52.2,77.81,8-13.33,53.81-61.3,68.09-61.21,4.63,10.2,8.62,25.55,4.95,47.25,1.36-1.36,1.45-1.43,0,.09v-.09c-7.83,7.82-54.76,55-75.19,82.6-30.4,41-52.13,89.49-45.25,147L328.93,478Zm20.21-38.33c-1.61-37.83,37.83-123,116.61-169.38,16.29,5.05,27.22,11.18,30.41,22.92-15,5.28-55.48,26.59-58.67,36.72,10.7-6.87,31.54-18.12,66.25-20.58,2.56,15.88-3.75,32-13.39,39.73-59.71,3.75-123.56,37.92-130.6,82.06l-10.61,8.53Z"/></svg>